<svg width="81" height="71" viewBox="0 0 81 71" fill="none" xmlns="http://www.w3.org/2000/svg">
<g id="logo-icon-default">
<path d="M23.5971 11.6627C22.3236 12.9362 20.7484 13.573 18.8717 13.573C16.9949 13.573 15.3863 12.9362 14.0457 11.6627C12.7052 10.3222 12.0349 8.71351 12.0349 6.83675C12.0349 4.96 12.7052 3.35135 14.0457 2.01081C15.3863 0.67027 16.9949 0 18.8717 0C20.7484 0 22.3236 0.67027 23.5971 2.01081C24.9376 3.35135 25.6079 4.96 25.6079 6.83675C25.6079 8.71351 24.9376 10.3222 23.5971 11.6627ZM42.6998 11.6627C41.4263 12.9362 39.8511 13.573 37.9744 13.573C36.0976 13.573 34.489 12.9362 33.1484 11.6627C31.8079 10.3222 31.1376 8.71351 31.1376 6.83675C31.1376 4.96 31.8079 3.35135 33.1484 2.01081C34.489 0.67027 36.0976 0 37.9744 0C39.8511 0 41.4263 0.67027 42.6998 2.01081C44.0403 3.35135 44.7106 4.96 44.7106 6.83675C44.7106 8.71351 44.0403 10.3222 42.6998 11.6627ZM41.4933 18.4995H54.463V68.7697H41.4933V62.8378C37.6057 67.7308 32.143 70.1773 25.1052 70.1773C18.4025 70.1773 12.6382 67.6303 7.81221 62.5362C3.05329 57.3751 0.673828 51.0746 0.673828 43.6346C0.673828 36.1946 3.05329 29.9276 7.81221 24.8335C12.6382 19.6724 18.4025 17.0919 25.1052 17.0919C32.143 17.0919 37.6057 19.5384 41.4933 24.4314V18.4995ZM17.5646 53.8897C20.1787 56.5038 23.4965 57.8108 27.5182 57.8108C31.5398 57.8108 34.8576 56.5038 37.4717 53.8897C40.1527 51.2087 41.4933 47.7903 41.4933 43.6346C41.4933 39.4789 40.1527 36.0941 37.4717 33.48C34.8576 30.7989 31.5398 29.4584 27.5182 29.4584C23.4965 29.4584 20.1787 30.7989 17.5646 33.48C14.9506 36.0941 13.6436 39.4789 13.6436 43.6346C13.6436 47.7903 14.9506 51.2087 17.5646 53.8897Z" fill="black"/>
<path d="M69.8704 70.1773C66.9212 70.1773 64.4077 69.1719 62.3298 67.1611C60.319 65.0833 59.3136 62.6032 59.3136 59.7211C59.3136 56.8389 60.3526 54.3924 62.4304 52.3816C64.5082 50.3038 66.9882 49.2649 69.8704 49.2649C72.7526 49.2649 75.199 50.3038 77.2099 52.3816C79.2877 54.3924 80.3266 56.8389 80.3266 59.7211C80.3266 62.6032 79.2877 65.0833 77.2099 67.1611C75.199 69.1719 72.7526 70.1773 69.8704 70.1773Z" fill="#27BDBE"/>
</g>
</svg>
