<svg width="180" height="30" viewBox="0 0 180 30" fill="none" xmlns="http://www.w3.org/2000/svg">
<path d="M51.13 29.8994C51.0082 29.7017 50.874 29.5028 50.7275 29.303C50.5809 29.1032 50.4278 28.9112 50.268 28.7263C50.1082 28.5418 49.9455 28.3688 49.78 28.207C49.6143 28.0454 49.4518 27.9037 49.2917 27.7818C49.4364 27.6408 49.5839 27.4927 49.7343 27.3363C49.8845 27.1804 50.034 27.0231 50.1823 26.8654C50.3309 26.7075 50.4753 26.5507 50.6162 26.3943C50.757 26.2384 50.8902 26.0881 51.0159 25.9436H50.1537C50.0548 26.054 49.9446 26.1776 49.8227 26.3145C49.7009 26.4515 49.5724 26.5932 49.4374 26.7399C49.3023 26.8865 49.1663 27.031 49.0293 27.1735C48.8922 27.3161 48.761 27.4504 48.6353 27.5761V25.9436H47.9161V29.8994H48.6353V28.1242C48.7838 28.2271 48.934 28.3487 49.0863 28.4892C49.2385 28.6303 49.3859 28.7789 49.5288 28.9348C49.6714 29.0907 49.8074 29.2525 49.9368 29.4201C50.0662 29.5876 50.1805 29.7472 50.2795 29.8994H51.13ZM53.0366 27.3308C53.0899 27.1555 53.1669 27.0051 53.2679 26.8796C53.3687 26.7539 53.4915 26.6572 53.636 26.5886C53.7806 26.5198 53.9443 26.4859 54.1269 26.4859C54.3059 26.4859 54.4675 26.5198 54.6122 26.5886C54.7569 26.6572 54.8797 26.7532 54.9805 26.8768C55.0813 27.0005 55.1583 27.151 55.2116 27.3276C55.2648 27.5047 55.2916 27.7018 55.2916 27.9185C55.2916 28.1354 55.2648 28.3327 55.2116 28.5094C55.1583 28.6866 55.0813 28.8369 54.9805 28.9606C54.8797 29.0843 54.7569 29.1802 54.6122 29.2488C54.4675 29.3172 54.3059 29.3515 54.1269 29.3515C53.9443 29.3515 53.7806 29.3172 53.636 29.2488C53.4915 29.1802 53.3687 29.0843 53.2679 28.9606C53.1669 28.8369 53.0899 28.6866 53.0366 28.5094C52.9833 28.3327 52.9568 28.1354 52.9568 27.9185C52.9568 27.7018 52.9833 27.5059 53.0366 27.3308ZM55.8909 27.0254C55.7883 26.7685 55.6502 26.5524 55.4772 26.3772C55.3039 26.2021 55.1012 26.0709 54.8692 25.9833C54.6369 25.896 54.3914 25.8519 54.1327 25.8519C53.8739 25.8519 53.6284 25.896 53.3964 25.9833C53.1642 26.0709 52.9596 26.2021 52.7827 26.3772C52.6057 26.5524 52.4658 26.7685 52.363 27.0254C52.2603 27.2818 52.2089 27.58 52.2089 27.9185C52.2089 28.2574 52.2603 28.556 52.363 28.8148C52.4658 29.0737 52.6037 29.2895 52.7769 29.4626C52.95 29.6361 53.1536 29.7661 53.3877 29.8537C53.6218 29.9414 53.87 29.9851 54.1327 29.9851C54.3953 29.9851 54.6426 29.9414 54.8749 29.8537C55.1069 29.7661 55.3096 29.6361 55.4829 29.4626C55.6559 29.2895 55.7929 29.0737 55.8939 28.8148C55.9947 28.556 56.0452 28.2574 56.0452 27.9185C56.0452 27.58 55.9938 27.2818 55.8909 27.0254ZM58.4142 27.3308C58.4675 27.1555 58.5445 27.0051 58.6453 26.8796C58.7461 26.7539 58.8689 26.6572 59.0136 26.5886C59.1583 26.5198 59.3219 26.4859 59.5046 26.4859C59.6833 26.4859 59.8452 26.5198 59.9899 26.5886C60.1343 26.6572 60.2571 26.7532 60.3579 26.8768C60.4587 27.0005 60.5357 27.151 60.5892 27.3276C60.6425 27.5047 60.669 27.7018 60.669 27.9185C60.669 28.1354 60.6425 28.3327 60.5892 28.5094C60.5357 28.6866 60.4587 28.8369 60.3579 28.9606C60.2571 29.0843 60.1343 29.1802 59.9899 29.2488C59.8452 29.3172 59.6833 29.3515 59.5046 29.3515C59.3219 29.3515 59.1583 29.3172 59.0136 29.2488C58.8689 29.1802 58.7461 29.0843 58.6453 28.9606C58.5445 28.8369 58.4675 28.6866 58.4142 28.5094C58.3607 28.3327 58.3342 28.1354 58.3342 27.9185C58.3342 27.7018 58.3607 27.5059 58.4142 27.3308ZM61.2685 27.0254C61.1657 26.7685 61.0278 26.5524 60.8546 26.3772C60.6813 26.2021 60.4788 26.0709 60.2465 25.9833C60.0145 25.896 59.769 25.8519 59.5103 25.8519C59.2513 25.8519 59.0058 25.896 58.7738 25.9833C58.5416 26.0709 58.3372 26.2021 58.1601 26.3772C57.9831 26.5524 57.8432 26.7685 57.7406 27.0254C57.6377 27.2818 57.5863 27.58 57.5863 27.9185C57.5863 28.2574 57.6377 28.556 57.7406 28.8148C57.8432 29.0737 57.9813 29.2895 58.1543 29.4626C58.3276 29.6361 58.5313 29.7661 58.7653 29.8537C58.9994 29.9414 59.2476 29.9851 59.5103 29.9851C59.7729 29.9851 60.0203 29.9414 60.2523 29.8537C60.4845 29.7661 60.687 29.6361 60.8603 29.4626C61.0336 29.2895 61.1705 29.0737 61.2713 28.8148C61.3721 28.556 61.4226 28.2574 61.4226 27.9185C61.4226 27.58 61.3712 27.2818 61.2685 27.0254ZM63.6803 25.9237C63.4766 25.9367 63.2913 25.9625 63.1237 26.0007V29.8994H63.8431V28.5064H64.2026C64.4918 28.5064 64.7487 28.4817 64.9734 28.4323C65.1979 28.3827 65.388 28.3059 65.5442 28.2013C65.7003 28.0965 65.8192 27.9614 65.901 27.7957C65.9828 27.6303 66.0237 27.4314 66.0237 27.1994C66.0237 26.7539 65.8706 26.427 65.5643 26.2176C65.2578 26.0082 64.8173 25.9036 64.2426 25.9036C64.0714 25.9036 63.884 25.9099 63.6803 25.9237ZM64.6794 26.5571C64.7992 26.5781 64.903 26.6132 64.9905 26.6626C65.0781 26.7123 65.1464 26.7808 65.196 26.8682C65.2454 26.9557 65.2701 27.0643 65.2701 27.1935C65.2701 27.4641 65.1768 27.6476 64.9905 27.7443C64.804 27.8414 64.5375 27.8899 64.1912 27.8899H63.8431V26.5429C63.961 26.5315 64.1114 26.5255 64.294 26.5255C64.431 26.5255 64.5594 26.536 64.6794 26.5571ZM70.2708 29.8994V29.2886H68.3128V28.1297H69.9341V27.5306H68.3128V26.5541H70.1339V25.9436H67.5936V29.8994H70.2708ZM72.4117 25.9237C72.2137 25.9367 72.0272 25.9625 71.8521 26.0007V29.8994H72.5715V28.4038H72.9196H73.0282C73.0661 28.4038 73.1118 28.4019 73.1651 28.3982C73.2373 28.4892 73.3155 28.5931 73.3992 28.7092C73.4828 28.8255 73.5676 28.9492 73.6534 29.0802C73.7388 29.2116 73.8234 29.3467 73.9073 29.4856C73.991 29.6244 74.0689 29.7627 74.1414 29.8994H74.9462C74.8776 29.7513 74.7997 29.5999 74.7121 29.4459C74.6246 29.2913 74.5332 29.1414 74.4381 28.9946C74.343 28.8484 74.2497 28.7121 74.1585 28.5864C74.0671 28.4609 73.9852 28.3544 73.913 28.2668C74.442 28.0767 74.7064 27.7132 74.7064 27.1763C74.7064 26.7463 74.5551 26.427 74.2527 26.2176C73.95 26.0082 73.5135 25.9036 72.9425 25.9036C72.7863 25.9036 72.6094 25.9099 72.4117 25.9237ZM73.382 26.5571C73.5 26.5781 73.6019 26.6132 73.6874 26.6626C73.7731 26.7123 73.8387 26.779 73.8844 26.8625C73.9302 26.9461 73.953 27.049 73.953 27.1708C73.953 27.3002 73.9302 27.407 73.8844 27.4904C73.8387 27.574 73.7711 27.6408 73.6817 27.6902C73.5923 27.74 73.481 27.7739 73.3477 27.7931C73.2145 27.812 73.0604 27.8213 72.8853 27.8213H72.5715V26.5429C72.7008 26.5315 72.8417 26.5255 72.9939 26.5255C73.1347 26.5255 73.2641 26.536 73.382 26.5571ZM79.97 29.8994C79.8216 29.4772 79.6797 29.087 79.5446 28.7291C79.4095 28.3717 79.2783 28.0325 79.1508 27.7132C79.0232 27.3932 78.8966 27.089 78.7711 26.7998C78.6456 26.5104 78.516 26.2249 78.3829 25.9436H77.6963C77.5632 26.2249 77.4339 26.5104 77.3084 26.7998C77.1829 27.089 77.0565 27.3932 76.9292 27.7132C76.8016 28.0325 76.6715 28.3717 76.5383 28.7291C76.4052 29.087 76.2644 29.4772 76.1163 29.8994H76.8642C76.9177 29.7472 76.9721 29.594 77.0274 29.4399C77.0825 29.2859 77.1372 29.1286 77.1904 28.9691H78.8616C78.9149 29.1286 78.9702 29.285 79.0273 29.4372C79.0847 29.5895 79.14 29.7438 79.1935 29.8994H79.97ZM78.3228 27.4392C78.4371 27.7322 78.5548 28.0481 78.6767 28.3866H77.3751C77.497 28.0481 77.614 27.7343 77.7262 27.4449C77.8385 27.1555 77.9383 26.91 78.0259 26.7082C78.1096 26.9027 78.2088 27.1459 78.3228 27.4392ZM80.6548 25.9436V26.5655H81.8707V29.8994H82.5957V26.5655H83.8118V25.9436H80.6548ZM85.2731 29.8994H85.9924V25.9436H85.2731V29.8994ZM89.6747 29.8994C89.9611 29.2831 90.2361 28.6381 90.4996 27.9642C90.7632 27.2906 91.0116 26.6172 91.2446 25.9436H90.4736C90.3858 26.2101 90.2941 26.4818 90.1988 26.7598C90.1035 27.0377 90.007 27.3119 89.9099 27.582C89.8125 27.852 89.7163 28.1119 89.621 28.361C89.5254 28.6104 89.434 28.8394 89.3462 29.0491C89.2545 28.8394 89.161 28.6095 89.0657 28.3581C88.9702 28.1068 88.8749 27.8474 88.7795 27.579C88.684 27.3104 88.5887 27.0377 88.4934 26.7598C88.398 26.4818 88.3046 26.2101 88.2129 25.9436H87.4193C87.6476 26.6172 87.8942 27.2906 88.1587 27.9642C88.4234 28.6381 88.6986 29.2831 88.9844 29.8994H89.6747ZM97.1356 29.8681C97.3333 29.7904 97.4961 29.6806 97.6236 29.5401C97.7509 29.3993 97.8463 29.2336 97.9089 29.0431C97.9718 28.8529 98.0033 28.6435 98.0033 28.4152V25.9436H97.2785V28.3466C97.2785 28.5256 97.2581 28.6788 97.2181 28.8063C97.1783 28.9338 97.1212 29.0377 97.0469 29.1174C96.9728 29.1974 96.8842 29.2566 96.7815 29.2945C96.6789 29.3325 96.5648 29.3515 96.4391 29.3515C96.3134 29.3515 96.2002 29.3325 96.0994 29.2945C95.9984 29.2566 95.9108 29.1974 95.8368 29.1174C95.7625 29.0377 95.7054 28.9338 95.6656 28.8063C95.6256 28.6788 95.6055 28.5256 95.6055 28.3466V25.9436H94.8806V28.4152C94.8806 28.6435 94.911 28.8529 94.9718 29.0431C95.0326 29.2336 95.127 29.3993 95.2544 29.5401C95.3819 29.6806 95.5428 29.7904 95.7371 29.8681C95.931 29.946 96.163 29.9851 96.4334 29.9851C96.7033 29.9851 96.9374 29.946 97.1356 29.8681ZM99.436 25.9436V26.5655H100.652V29.8994H101.377V26.5655H102.593V25.9436H99.436ZM106.013 29.8994C106.299 29.2831 106.574 28.6381 106.838 27.9642C107.101 27.2906 107.349 26.6172 107.582 25.9436H106.811C106.724 26.2101 106.632 26.4818 106.537 26.7598C106.441 27.0377 106.345 27.3119 106.248 27.582C106.15 27.852 106.054 28.1119 105.959 28.361C105.863 28.6104 105.772 28.8394 105.684 29.0491C105.592 28.8394 105.499 28.6095 105.404 28.3581C105.308 28.1068 105.213 27.8474 105.118 27.579C105.022 27.3104 104.927 27.0377 104.831 26.7598C104.736 26.4818 104.642 26.2101 104.551 25.9436H103.757C103.986 26.6172 104.232 27.2906 104.497 27.9642C104.761 28.6381 105.037 29.2831 105.322 29.8994H106.013ZM111.681 29.8994V29.2886H109.723V28.1297H111.344V27.5306H109.723V26.5541H111.544V25.9436H109.004V29.8994H111.681ZM115.306 29.9595C115.439 29.9423 115.559 29.9193 115.665 29.8909C115.772 29.8623 115.864 29.8329 115.942 29.8022C116.02 29.7721 116.082 29.7417 116.128 29.7113L115.934 29.1234C115.846 29.1688 115.723 29.2175 115.563 29.2685C115.403 29.3199 115.195 29.3458 114.941 29.3458C114.728 29.3458 114.545 29.3105 114.392 29.2399C114.24 29.17 114.115 29.0708 114.016 28.9435C113.917 28.816 113.843 28.6646 113.796 28.4892C113.748 28.3146 113.724 28.1224 113.724 27.9131C113.724 27.6771 113.755 27.4695 113.816 27.2906C113.877 27.1119 113.962 26.9633 114.07 26.8455C114.178 26.7274 114.307 26.6391 114.455 26.5801C114.604 26.5212 114.764 26.4912 114.935 26.4912C115.133 26.4912 115.316 26.5171 115.486 26.5687C115.655 26.6199 115.786 26.6743 115.877 26.7312L116.088 26.1433C116.062 26.1281 116.016 26.1033 115.951 26.0688C115.886 26.035 115.805 26.0023 115.705 25.9722C115.606 25.9417 115.491 25.914 115.357 25.8891C115.224 25.8646 115.076 25.8519 114.912 25.8519C114.642 25.8519 114.389 25.8976 114.153 25.9893C113.917 26.0802 113.711 26.2144 113.536 26.3915C113.361 26.5687 113.223 26.7845 113.122 27.0393C113.021 27.2947 112.971 27.5875 112.971 27.9185C112.971 28.2495 113.015 28.543 113.102 28.7978C113.19 29.0527 113.315 29.2685 113.479 29.4459C113.643 29.6226 113.843 29.7568 114.079 29.8481C114.314 29.9394 114.581 29.9851 114.878 29.9851C115.03 29.9851 115.173 29.9764 115.306 29.9595ZM120.889 29.8994C120.767 29.7017 120.633 29.5028 120.486 29.303C120.34 29.1032 120.187 28.9112 120.027 28.7263C119.867 28.5418 119.704 28.3688 119.539 28.207C119.373 28.0454 119.21 27.9037 119.051 27.7818C119.195 27.6408 119.343 27.4927 119.493 27.3363C119.643 27.1804 119.793 27.0231 119.941 26.8654C120.09 26.7075 120.234 26.5507 120.375 26.3943C120.516 26.2384 120.649 26.0881 120.775 25.9436H119.913C119.814 26.054 119.703 26.1776 119.581 26.3145C119.46 26.4515 119.331 26.5932 119.196 26.7399C119.061 26.8865 118.925 27.031 118.788 27.1735C118.651 27.3161 118.52 27.4504 118.394 27.5761V25.9436H117.675V29.8994H118.394V28.1242C118.543 28.2271 118.693 28.3487 118.845 28.4892C118.997 28.6303 119.145 28.7789 119.287 28.9348C119.43 29.0907 119.567 29.2525 119.696 29.4201C119.825 29.5876 119.939 29.7472 120.038 29.8994H120.889ZM123.024 29.2774V25.9436H122.305V29.8994H124.805V29.2774H123.024ZM126.266 29.8994H126.986V25.9436H126.266V29.8994ZM132.123 29.8994V25.9436H131.41V28.5695C131.281 28.3638 131.133 28.1423 130.967 27.9046C130.802 27.6666 130.63 27.4298 130.453 27.1935C130.277 26.9576 130.101 26.7303 129.925 26.5115C129.75 26.2928 129.587 26.1033 129.434 25.9436H128.847V29.8994H129.554V27.0679C129.714 27.2584 129.883 27.4723 130.059 27.71C130.237 27.948 130.411 28.1935 130.582 28.4467C130.753 28.6998 130.919 28.951 131.078 29.2003C131.238 29.4493 131.383 29.6827 131.512 29.8994H132.123ZM136.368 26.5571C136.537 26.6046 136.679 26.6626 136.793 26.7312L137.01 26.1433C136.983 26.1281 136.936 26.1033 136.87 26.0688C136.803 26.035 136.719 26.0023 136.616 25.9722C136.513 25.9417 136.39 25.914 136.248 25.8891C136.105 25.8646 135.942 25.8519 135.76 25.8519C135.493 25.8519 135.242 25.8976 135.006 25.9893C134.77 26.0802 134.565 26.2144 134.389 26.3915C134.215 26.5687 134.076 26.7845 133.976 27.0393C133.875 27.2947 133.825 27.5875 133.825 27.9185C133.825 28.2495 133.87 28.543 133.961 28.7978C134.053 29.0527 134.181 29.2678 134.347 29.4427C134.512 29.6181 134.713 29.7513 134.949 29.8422C135.185 29.9339 135.446 29.9797 135.731 29.9797C136.039 29.9797 136.311 29.9565 136.548 29.9108C136.783 29.8654 136.951 29.8232 137.05 29.7854V27.8845H136.33V29.306C136.277 29.3211 136.205 29.3336 136.113 29.343C136.022 29.3526 135.914 29.357 135.788 29.357C135.587 29.357 135.41 29.3222 135.26 29.2513C135.11 29.1814 134.984 29.0834 134.883 28.9574C134.782 28.8319 134.706 28.6806 134.655 28.5039C134.604 28.3267 134.578 28.132 134.578 27.9185C134.578 27.4695 134.685 27.1185 134.901 26.8654C135.115 26.6122 135.427 26.4859 135.834 26.4859C136.02 26.4859 136.198 26.5095 136.368 26.5571Z" fill="white"/>
<path d="M54.6945 0.939655C54.5144 2.35092 54.3448 3.88974 54.1854 5.55564C54.0256 7.22178 53.881 8.94186 53.7514 10.7154C53.6217 12.4897 53.5017 14.2781 53.392 16.0812C53.2823 17.8847 53.1874 19.6292 53.1077 21.3148H56.7536C56.8333 18.9432 56.928 16.5029 57.0379 13.9938C57.1476 11.4848 57.3124 9.05432 57.5326 6.70221C57.7481 7.13355 58.003 7.66797 58.2969 8.30457C58.5911 8.94186 58.9043 9.62303 59.2378 10.3479C59.5708 11.0734 59.9089 11.8282 60.2522 12.6117C60.5949 13.396 60.9284 14.1554 61.2518 14.8905C61.5753 15.6254 61.8736 16.3164 62.1485 16.963C62.4228 17.6102 62.6581 18.159 62.8542 18.6095H65.6177C65.8136 18.159 66.0488 17.615 66.3234 16.9779C66.5977 16.3411 66.8969 15.6549 67.2201 14.9197C67.5435 14.1848 67.8766 13.4253 68.2199 12.6412C68.5626 11.8574 68.9006 11.0976 69.2341 10.3627C69.5672 9.62761 69.881 8.94689 70.175 8.3192C70.4689 7.6922 70.7236 7.15343 70.9394 6.70221C71.159 9.05432 71.3238 11.4848 71.4338 13.9938C71.5435 16.5029 71.6386 18.9432 71.7186 21.3148H75.3643C75.2842 19.6292 75.1892 17.8993 75.0792 16.1253C74.9695 14.3515 74.8497 12.5875 74.7201 10.8332C74.5907 9.07901 74.4456 7.36373 74.2865 5.68799C74.1265 4.01203 73.9571 2.42955 73.7774 0.939655H70.4397C70.0081 1.68483 69.5281 2.59619 68.9989 3.67396C68.4695 4.75218 67.9303 5.88412 67.3819 7.06977C66.8329 8.25589 66.2941 9.46143 65.7649 10.6859C65.2355 11.9111 64.7452 13.0431 64.2947 14.0818C63.8437 13.0431 63.3488 11.9111 62.8101 10.6859C62.2708 9.46143 61.7268 8.25589 61.1782 7.06977C60.6294 5.88412 60.0904 4.75218 59.5612 3.67396C59.0321 2.59619 58.5516 1.68483 58.1207 0.939655H54.6945ZM81.3764 0.836794C80.3272 0.905598 79.372 1.03794 78.5098 1.23361V21.3148H82.2142V14.1407H84.0666C85.5556 14.1407 86.8789 14.0134 88.0357 13.7585C89.1919 13.5039 90.1718 13.1071 90.9755 12.5676C91.7792 12.0289 92.3916 11.3328 92.8131 10.4802C93.2343 9.62761 93.4453 8.60356 93.4453 7.40784C93.4453 5.11448 92.6563 3.42914 91.0786 2.35092C89.5007 1.27316 87.2318 0.733931 84.2723 0.733931C83.3902 0.733931 82.4247 0.768219 81.3764 0.836794ZM86.5216 4.10026C87.139 4.20815 87.6727 4.38965 88.1239 4.64406C88.5745 4.89916 88.9272 5.25186 89.1823 5.70262C89.4367 6.15361 89.5645 6.71227 89.5645 7.37836C89.5645 8.77043 89.084 9.71584 88.1239 10.2158C87.1632 10.7154 85.791 10.9653 84.0076 10.9653H82.2142V4.02666C82.8215 3.96791 83.5962 3.93866 84.5368 3.93866C85.2427 3.93866 85.9042 3.99283 86.5216 4.10026ZM111.704 21.3148C110.939 19.1389 110.209 17.1299 109.514 15.2873C108.817 13.4452 108.141 11.7004 107.484 10.0539C106.827 8.40743 106.176 6.83959 105.529 5.34969C104.882 3.86048 104.216 2.39047 103.53 0.939655H99.9935C99.3082 2.39047 98.6419 3.86048 97.9955 5.34969C97.349 6.83959 96.6983 8.40743 96.042 10.0539C95.3862 11.7004 94.7156 13.4452 94.0303 15.2873C93.3448 17.1299 92.6199 19.1389 91.8565 21.3148H95.7085C95.9835 20.5307 96.2635 19.7415 96.5483 18.9476C96.8331 18.154 97.1136 17.3455 97.3888 16.5221H105.995C106.27 17.3455 106.555 18.1494 106.849 18.933C107.144 19.7172 107.429 20.5111 107.705 21.3148H111.704ZM103.221 8.64265C103.809 10.1522 104.416 11.779 105.043 13.5233H98.34C98.967 11.779 99.57 10.1618 100.148 8.67213C100.726 7.18269 101.241 5.9184 101.692 4.87927C102.123 5.87909 102.633 7.13355 103.221 8.64265ZM129.99 21.3148V0.939655H126.315V14.4642C125.648 13.4056 124.889 12.2641 124.036 11.0389C123.184 9.81413 122.302 8.59396 121.39 7.37836C120.479 6.16345 119.572 4.99242 118.671 3.86505C117.769 2.73814 116.926 1.76278 116.142 0.939655H113.114V21.3148H116.759V6.7317C117.583 7.71186 118.45 8.81454 119.362 10.0393C120.273 11.2645 121.17 12.5288 122.052 13.8319C122.934 15.1358 123.786 16.4293 124.61 17.7128C125.433 18.997 126.177 20.1972 126.844 21.3148H129.99ZM134.165 21.3148H137.869V0.939655H134.165V21.3148ZM145.043 8.08399C145.317 7.18269 145.714 6.40826 146.233 5.76137C146.753 5.11448 147.385 4.6148 148.13 4.26187C148.874 3.90916 149.717 3.7327 150.658 3.7327C151.579 3.7327 152.412 3.90916 153.157 4.26187C153.902 4.6148 154.534 5.10991 155.054 5.74674C155.573 6.3838 155.97 7.15801 156.244 8.06936C156.519 8.98072 156.656 9.99517 156.656 11.1125C156.656 12.2296 156.519 13.244 156.244 14.1554C155.97 15.0669 155.573 15.8414 155.054 16.478C154.534 17.1153 153.902 17.6102 153.157 17.9629C152.412 18.3156 151.579 18.492 150.658 18.492C149.717 18.492 148.874 18.3156 148.13 17.9629C147.385 17.6102 146.753 17.1153 146.233 16.478C145.714 15.8414 145.317 15.0669 145.043 14.1554C144.768 13.244 144.631 12.2296 144.631 11.1125C144.631 9.99517 144.768 8.98575 145.043 8.08399ZM159.743 6.51112C159.214 5.18808 158.503 4.0758 157.612 3.17405C156.719 2.27275 155.675 1.5966 154.48 1.14538C153.284 0.694845 152.02 0.469234 150.688 0.469234C149.354 0.469234 148.09 0.694845 146.895 1.14538C145.699 1.5966 144.646 2.27275 143.734 3.17405C142.823 4.0758 142.102 5.18808 141.574 6.51112C141.044 7.83415 140.779 9.36817 140.779 11.1125C140.779 12.857 141.044 14.3956 141.574 15.7282C142.102 17.0616 142.813 18.1736 143.705 19.0653C144.597 19.9575 145.645 20.6286 146.851 21.0793C148.056 21.5299 149.335 21.7555 150.688 21.7555C152.04 21.7555 153.314 21.5299 154.51 21.0793C155.705 20.6286 156.749 19.9575 157.641 19.0653C158.533 18.1736 159.238 17.0616 159.758 15.7282C160.277 14.3956 160.537 12.857 160.537 11.1125C160.537 9.36817 160.272 7.83415 159.743 6.51112ZM180 21.3148V0.939655H176.325V14.4642C175.659 13.4056 174.899 12.2641 174.046 11.0389C173.194 9.81413 172.312 8.59396 171.401 7.37836C170.489 6.16345 169.582 4.99242 168.681 3.86505C167.779 2.73814 166.936 1.76278 166.152 0.939655H163.124V21.3148H166.77V6.7317C167.593 7.71186 168.461 8.81454 169.372 10.0393C170.283 11.2645 171.18 12.5288 172.062 13.8319C172.944 15.1358 173.797 16.4293 174.62 17.7128C175.443 18.997 176.188 20.1972 176.854 21.3148H180Z" fill="#E75662"/>
<path d="M29.552 3.12383C25.8433 3.17983 22.8936 6.12511 22.8936 11.1594C22.8936 16.2673 26.1278 19.1074 29.8782 19.1074C33.8807 19.1074 36.8095 16.5409 36.8095 11.1631C36.8095 5.56189 33.1693 3.12383 29.5957 3.12383H29.552ZM29.8183 0.573309C37.6182 0.573309 40.7329 6.34227 40.7329 10.8883C40.7329 16.9078 36.9194 21.657 29.808 21.657C22.1114 21.657 18.9725 16.1926 18.9725 11.2739C18.9725 7.69159 20.4995 4.64824 23.2219 2.67878C24.9237 1.36192 27.191 0.573309 29.7721 0.573309H29.8183Z" fill="#E75662"/>
<path d="M29.552 3.12383C25.8433 3.17983 22.8936 6.12511 22.8936 11.1594C22.8936 16.2673 26.1278 19.1074 29.8782 19.1074C33.8807 19.1074 36.8095 16.5409 36.8095 11.1631C36.8095 5.56189 33.1693 3.12383 29.5957 3.12383H29.552ZM29.8183 0.573309C37.6182 0.573309 40.7329 6.34227 40.7329 10.8883C40.7329 16.9078 36.9194 21.657 29.808 21.657C22.1114 21.657 18.9725 16.1926 18.9725 11.2739C18.9725 7.69159 20.4995 4.64824 23.2219 2.67878C24.9237 1.36192 27.191 0.573309 29.7721 0.573309H29.8183Z" fill="#E75662" stroke="#E75662" stroke-width="1.14667" stroke-miterlimit="10"/>
<path d="M32.9243 6.71646C33.8605 7.65136 34.0635 8.66832 34.0342 8.86193C34.0054 9.05577 33.8057 10.3372 33.8057 11.1594C33.8057 16.2673 37.0403 19.1074 40.7909 19.1074C44.795 19.1074 47.7261 16.5409 47.7261 11.1631C47.7261 5.78796 44.4002 3.34167 40.9719 3.15263C40.8759 3.04383 40.2307 2.34916 39.9065 1.99623C39.584 1.64033 39.1659 1.27071 38.5526 0.767834C39.1789 0.667257 40.0128 0.573309 40.6869 0.573309H40.7308C48.5307 0.573309 51.6472 6.34227 51.6472 10.8883C51.6472 16.9078 47.8338 21.657 40.7201 21.657C33.0253 21.657 29.8853 16.1926 29.8853 11.2739C29.8853 9.2384 30.3778 7.37592 31.3034 5.78636C31.3118 5.79641 31.9878 5.78155 32.9243 6.71646Z" fill="#E75662"/>
<path d="M32.9243 6.71646C33.8605 7.65136 34.0635 8.66832 34.0342 8.86193C34.0054 9.05577 33.8057 10.3372 33.8057 11.1594C33.8057 16.2673 37.0403 19.1074 40.7909 19.1074C44.795 19.1074 47.7261 16.5409 47.7261 11.1631C47.7261 5.78796 44.4002 3.34167 40.9719 3.15263C40.8759 3.04383 40.2307 2.34916 39.9065 1.99623C39.584 1.64033 39.1659 1.27071 38.5526 0.767834C39.1789 0.667257 40.0128 0.573309 40.6869 0.573309H40.7308C48.5307 0.573309 51.6472 6.34227 51.6472 10.8883C51.6472 16.9078 47.8338 21.657 40.7201 21.657C33.0253 21.657 29.8853 16.1926 29.8853 11.2739C29.8853 9.2384 30.3778 7.37592 31.3034 5.78636C31.3118 5.79641 31.9878 5.78155 32.9243 6.71646Z" fill="#E75662" stroke="#E75662" stroke-width="1.14667" stroke-miterlimit="10"/>
<path d="M13.7024 21.6238C14.4839 21.5361 15.1874 21.4192 15.8131 21.2727C16.438 21.1264 16.9798 20.9758 17.4378 20.8197C17.8952 20.6636 18.2587 20.5077 18.5266 20.3513L17.3876 17.3384C16.8735 17.5724 16.148 17.8209 15.2098 18.0842C14.2719 18.3476 13.0543 18.4792 11.5582 18.4792C10.3073 18.4792 9.23518 18.2991 8.34208 17.9379C7.44858 17.5775 6.7114 17.0705 6.13082 16.417C5.54981 15.7637 5.11997 14.9885 4.84112 14.0914C4.56156 13.1944 4.42245 12.2094 4.42245 11.1367C4.42245 9.92774 4.60086 8.86506 4.95836 7.94821C5.31518 7.03183 5.81259 6.27111 6.44915 5.66651C7.08561 5.06214 7.83939 4.60886 8.71058 4.30644C9.58171 4.00403 10.5195 3.85294 11.5247 3.85294C12.6859 3.85294 13.7636 3.98437 14.7577 4.2477C15.7512 4.51102 16.5164 4.78898 17.0525 5.08134L18.2921 2.0684C18.1357 1.99068 17.8676 1.86359 17.4881 1.68803C17.108 1.51271 16.628 1.34722 16.0476 1.19087C15.4665 1.03498 14.7853 0.893713 14.0039 0.766621C13.222 0.639986 12.3508 0.576439 11.3907 0.576439C9.80457 0.576439 8.31941 0.810738 6.93489 1.27865C5.54982 1.74655 4.3437 2.43413 3.31677 3.34091C2.28932 4.2477 1.47945 5.35472 0.887904 6.66107C0.295739 7.96787 0 9.46943 0 11.166C0 12.8627 0.256446 14.3645 0.770573 15.6709C1.28417 16.9777 2.02117 18.0842 2.98158 18.9912C3.94172 19.898 5.11425 20.5854 6.49951 21.0535C7.88403 21.5214 9.44751 21.7555 11.1898 21.7555C12.0828 21.7555 12.9203 21.7116 13.7024 21.6238Z" fill="#E75662"/>
</svg>
