<svg viewBox="0 0 133 131" fill="none" xmlns="http://www.w3.org/2000/svg">
  <mask id="path-1-inside-1_1466_4231" fill="white">
    <path fillRule="evenodd" clipRule="evenodd" d="M94.2179 106.821C85.9698 112.488 75.9782 115.805 65.2112 115.805C36.9055 115.805 13.9592 92.8797 13.9592 64.6001C13.9592 36.3206 36.9055 13.3955 65.2112 13.3955C91.216 13.3955 112.697 32.745 116.018 57.8192C119.397 75.326 118.168 96.153 111.103 112.954L94.2179 106.821Z"/>
  </mask>
  <path fillRule="evenodd" clipRule="evenodd" d="M94.2179 106.821C85.9698 112.488 75.9782 115.805 65.2112 115.805C36.9055 115.805 13.9592 92.8797 13.9592 64.6001C13.9592 36.3206 36.9055 13.3955 65.2112 13.3955C91.216 13.3955 112.697 32.745 116.018 57.8192C119.397 75.326 118.168 96.153 111.103 112.954L94.2179 106.821Z" fill="black"/>
  <path d="M94.2179 106.821L94.8696 105.027L93.9465 104.691L93.1369 105.247L94.2179 106.821ZM116.018 57.8192L114.126 58.0698L114.133 58.1257L114.144 58.181L116.018 57.8192ZM111.103 112.954L110.451 114.748L112.159 115.369L112.863 113.694L111.103 112.954ZM93.1369 105.247C85.1968 110.703 75.5802 113.896 65.2112 113.896V117.714C76.3762 117.714 86.7427 114.273 95.2988 108.394L93.1369 105.247ZM65.2112 113.896C37.9581 113.896 15.868 91.8238 15.868 64.6001H12.0504C12.0504 93.9356 35.853 117.714 65.2112 117.714V113.896ZM15.868 64.6001C15.868 37.3765 37.9581 15.3043 65.2112 15.3043V11.4867C35.853 11.4867 12.0504 35.2647 12.0504 64.6001H15.868ZM65.2112 15.3043C90.2474 15.3043 110.929 33.9334 114.126 58.0698L117.91 57.5686C114.465 31.5565 92.1846 11.4867 65.2112 11.4867V15.3043ZM112.863 113.694C120.097 96.4908 121.331 75.2724 117.892 57.4575L114.144 58.181C117.463 75.3796 116.239 95.8151 109.343 112.214L112.863 113.694ZM93.5662 108.615L110.451 114.748L111.755 111.16L94.8696 105.027L93.5662 108.615Z" fill="white" mask="url(#path-1-inside-1_1466_4231)"/>
  <ellipse cx="65.8699" cy="64.473" rx="31.8179" ry="32.097" fill="white"/>
</svg>
